<svg fill="none" height="80" viewBox="0 0 80 80" width="80" xmlns="http://www.w3.org/2000/svg" xmlns:xlink="http://www.w3.org/1999/xlink"><mask id="a" height="80" maskUnits="userSpaceOnUse" width="80" x="0" y="0"><path d="m0 0h80v80h-80z" fill="#fff"/></mask><g mask="url(#a)"><path d="m59.9981 37.001c0-8.8229-8.9713-16.001-19.999-16.001s-19.9991 7.1781-19.9991 16.001c0 7.9099 7.1156 14.5335 16.7262 15.7866.6504.1386 1.5371.4232 1.762.9721.2025.499.1312 1.2789.0656 1.7834 0 0-.2343 1.3916-.2849 1.6873-.0881.499-.4011 1.9498 1.732 1.0627 2.1351-.8871 11.517-6.6865 15.7121-11.4472 2.898-3.1344 4.287-6.3132 4.287-9.8449z" fill="#4b4b4b"/><g fill="#fff"><path d="m53.344 42.0963h-5.6178c-.2119 0-.3824-.1682-.3824-.377v-.0056-8.59-.0093c0-.2088.1705-.377.3824-.377h5.6178c.21 0 .3824.1701.3824.377v1.3991c0 .2088-.1705.377-.3824.377h-3.8183v1.4526h3.8183c.21 0 .3824.17.3824.377v1.399c0 .2089-.1705.377-.3824.377h-3.8183v1.4527h3.8183c.21 0 .3824.17.3824.377v1.399c0 .2088-.1705.377-.3824.377z"/><path d="m32.5608 42.0964c.2099 0 .3823-.1682.3823-.377v-1.399c0-.207-.1724-.377-.3823-.377h-3.8184v-6.8307c0-.207-.1725-.377-.3824-.377h-1.419c-.2118 0-.3824.1682-.3824.377v8.5993.0074c0 .2088.1706.377.3824.377h5.6179z"/><path d="m35.9401 32.7374h-1.4171c-.2112 0-.3824.1688-.3824.377v8.6049c0 .2082.1712.377.3824.377h1.4171c.2112 0 .3824-.1688.3824-.377v-8.6049c0-.2082-.1712-.377-.3824-.377z"/><path d="m45.596 32.7374h-1.419c-.2118 0-.3824.1682-.3824.377v5.1101l-3.9927-5.317c-.0093-.013-.0206-.0259-.03-.0389 0 0 0 0-.0018-.0018-.0075-.0074-.015-.0166-.0225-.024-.0019-.0019-.0056-.0037-.0075-.0056-.0075-.0055-.0131-.0111-.0206-.0166-.0038-.0019-.0075-.0056-.0113-.0074-.0056-.0055-.0131-.0092-.0206-.0129-.0038-.0019-.0075-.0056-.0113-.0074-.0075-.0037-.0131-.0074-.0206-.0111-.0037-.0019-.0075-.0037-.0112-.0056-.0075-.0037-.015-.0074-.0225-.0092-.0038 0-.0075-.0037-.0131-.0037-.0075-.0018-.015-.0055-.0225-.0074-.0038 0-.0094-.0018-.0132-.0037-.0074 0-.0149-.0037-.0224-.0055-.0057 0-.0113 0-.0169-.0019-.0075 0-.0131-.0018-.0206-.0018s-.0132 0-.0207 0c-.0037 0-.0093 0-.0131 0h-1.4096c-.2099 0-.3824.1682-.3824.377v8.6048c0 .207.1706.377.3824.377h1.419c.2118 0 .3824-.1682.3824-.377v-5.11l3.9983 5.3244c.0281.0388.0619.0702.0994.0942 0 0 .0037.0019.0037.0037.0075.0056.015.0093.0244.0148.0037.0019.0075.0037.0112.0056.0056.0037.0131.0055.0188.0092.0056.0037.0131.0055.0187.0074.0038 0 .0075.0037.0113.0037.0093.0037.0168.0055.0262.0074h.0056c.0319.0074.0656.0129.0994.0129h1.4096c.2099 0 .3824-.1682.3824-.377v-8.6048c0-.207-.1706-.377-.3824-.377z"/></g></g></svg>