<svg fill="none" height="60" viewBox="0 0 233 60" width="233" xmlns="http://www.w3.org/2000/svg"><path d="m3.71414 59h-1.72v-14.12h9.21996v1.56h-7.49996v4.4h6.75996v1.56h-6.75996zm23.40716 0h-2.02l-4-5.98h-3.06v5.98h-1.68v-14.12h4.34c1.8134 0 3.0734.14 3.78.42.6667.2667 1.1934.72 1.58 1.36.4.6267.6 1.36.6 2.2 0 1.0933-.3333 1.98-1 2.66-.6533.68-1.6 1.1067-2.84 1.28zm-9.08-7.48h3.12c1.2667 0 2.2-.2133 2.8-.64.6134-.4267.92-1.1067.92-2.04 0-.84-.2866-1.48-.86-1.92-.2666-.2133-.6133-.3533-1.04-.42-.4133-.08-1.0333-.12-1.86-.12h-3.08zm25.0558 7.48h-1.86l-1.36-3.8h-6.14l-1.36 3.8h-1.84l5.46-14.12h1.82zm-8.82-5.26h5.1c-1.24-3.4133-2.0867-5.7667-2.54-7.06-.1867.5467-1.04 2.9-2.56 7.06zm24.1294 5.26h-1.62v-1.72c-.9067 1.32-2.34 1.98-4.3 1.98-1.7733 0-3.2067-.6533-4.3-1.96-1.08-1.32-1.62-3.0533-1.62-5.2 0-2.12.5733-3.9 1.72-5.34 1.16-1.44 2.76-2.16 4.8-2.16 2.8 0 4.5867 1.2067 5.36 3.62l-1.7.64c-.5467-1.8267-1.7267-2.74-3.54-2.74-1.4667 0-2.64.5267-3.52 1.58-.8667 1.0533-1.3 2.4933-1.3 4.32 0 1.76.4067 3.1533 1.22 4.18.8267 1.0133 1.9333 1.52 3.32 1.52 1.8667 0 3.0733-.8333 3.62-2.5.16-.4933.24-1.2067.24-2.14h-4.54v-1.54h6.16zm16.7187 0h-2.02l-4-5.98h-3.06v5.98h-1.68v-14.12h4.34c1.8134 0 3.0734.14 3.78.42.6667.2667 1.1934.72 1.58 1.36.4.6267.6 1.36.6 2.2 0 1.0933-.3333 1.98-1 2.66-.6533.68-1.6 1.1067-2.84 1.28zm-9.08-7.48h3.12c1.2667 0 2.2-.2133 2.8-.64.6134-.4267.92-1.1067.92-2.04 0-.84-.2866-1.48-.86-1.92-.2666-.2133-.6133-.3533-1.04-.42-.4133-.08-1.0333-.12-1.86-.12h-3.08zm25.0558 7.48h-1.86l-1.36-3.8h-6.14l-1.36 3.8h-1.84l5.46-14.12h1.82zm-8.82-5.26h5.1c-1.24-3.4133-2.0867-5.7667-2.54-7.06-.1867.5467-1.04 2.9-2.56 7.06zm24.439 5.26h-1.94c-4.8937-7.6-7.4271-11.5333-7.6004-11.8.04.96.06 4.8933.06 11.8h-1.64v-14.12h1.98c4.2664 6.64 6.7804 10.5867 7.5404 11.84-.04-2.76-.06-6.7067-.06-11.84h1.66zm16.901-10.7-1.66.62c-.507-1.8667-1.66-2.8-3.46-2.8-1.414 0-2.527.4933-3.34 1.48-.814.9733-1.22 2.34-1.22 4.1 0 1.8533.413 3.32 1.24 4.4.826 1.08 1.933 1.62 3.32 1.62.92 0 1.713-.24 2.38-.72.666-.48 1.113-1.22 1.34-2.22l1.68.6c-.44 1.2933-1.147 2.2667-2.12 2.92-.96.6533-2.107.98-3.44.98-1.92 0-3.434-.66-4.54-1.98-1.107-1.3333-1.66-3.1467-1.66-5.44 0-2.3067.58-4.0933 1.74-5.36 1.173-1.2667 2.713-1.9 4.62-1.9 1.28 0 2.366.32 3.26.96.906.6267 1.526 1.54 1.86 2.74zm14.808 10.7h-9.72v-14.12h9.26v1.56h-7.52v4.52h6.86v1.54h-6.86v4.94h7.98zm14.035 0h-1.72v-14.12h9.22v1.56h-7.5v4.4h6.76v1.56h-6.76zm14.347 0h-1.7v-14.12h1.7zm17.127 0h-1.94c-4.893-7.6-7.426-11.5333-7.6-11.8.04.96.06 4.8933.06 11.8h-1.64v-14.12h1.98c4.267 6.64 6.78 10.5867 7.54 11.84-.04-2.76-.06-6.7067-.06-11.84h1.66zm6.001 0v-14.12h3.96c1.214 0 2.127.0467 2.74.14.627.08 1.187.24 1.68.48.894.44 1.6 1.2267 2.12 2.36.52 1.12.78 2.4267.78 3.92 0 2.4-.613 4.2333-1.84 5.5-.56.6-1.213 1.02-1.96 1.26-.906.3067-2.146.46-3.72.46zm1.7-1.52h2.12c1.227 0 2.154-.0933 2.78-.28.64-.1867 1.174-.54 1.6-1.06.854-1.0533 1.28-2.4933 1.28-4.32 0-.8533-.086-1.6267-.26-2.32-.16-.6933-.486-1.3267-.98-1.9-.493-.5867-1.126-.9467-1.9-1.08-.466-.0933-1.2-.14-2.2-.14h-2.44zm24.712 1.52h-9.72v-14.12h9.26v1.56h-7.52v4.52h6.86v1.54h-6.86v4.94h7.98zm15.739 0h-2.02l-4-5.98h-3.06v5.98h-1.68v-14.12h4.34c1.813 0 3.073.14 3.78.42.667.2667 1.193.72 1.58 1.36.4.6267.6 1.36.6 2.2 0 1.0933-.333 1.98-1 2.66-.653.68-1.6 1.1067-2.84 1.28zm-9.08-7.48h3.12c1.267 0 2.2-.2133 2.8-.64.613-.4267.92-1.1067.92-2.04 0-.84-.287-1.48-.86-1.92-.267-.2133-.613-.3533-1.04-.42-.413-.08-1.033-.12-1.86-.12h-3.08z" fill="#4b4b4b"/><path d="m26 0v3.85936h8.4942v21.13694h4.3688v-21.13694h8.498v-3.85936zm56.2102 10.2083h-11.5415v-10.2083h-4.4137v25h4.4137v-10.91h11.5415v10.91h4.4137v-25h-4.4137zm121.4798 10.9697h-10.216v-7.1477h9.861v-3.822h-9.861v-6.41612h10.19l2.227-3.79218h-16.786v25h16.895l-2.306-3.822zm-48.397 0v-7.1477h9.864v-3.822h-9.864v-6.41612h10.194l2.212-3.79218h-16.786v25h16.91l-2.31-3.822h-10.216zm-31.091-7.6889c3.486-1.0899 5.084-3.0905 5.084-6.44222 0-4.08704-3.496-7.04688-8.318-7.04688h-11.149v25h4.414v-10.8017h5.503c.258.4628 6.065 10.8017 6.065 10.8017h4.78s-5.873-10.5815-6.379-11.5109zm-3.878-3.0867h-6.091v-6.64382h5.818c3.129 0 4.645 1.07495 4.645 3.2883s-1.463 3.35552-4.372 3.35552z" fill="#251e1c"/></svg>