<svg width="300" height="94" viewBox="0 0 300 94" fill="none" xmlns="http://www.w3.org/2000/svg">
<path d="M24.0848 87.75L26.4848 86.64C27.5048 89.61 29.2748 91.2 32.3048 91.2C35.1548 91.2 37.1948 89.85 37.1948 87.48C37.1948 85.53 36.2048 84.78 32.7248 83.64L30.9848 83.07C27.0248 81.78 25.1948 80.16 25.1948 77.13C25.1948 73.71 28.3148 71.4 32.1848 71.4C35.6948 71.4 38.5448 72.9 39.8648 76.11L37.5548 77.25C36.6248 74.64 34.6448 73.56 32.3048 73.56C29.3948 73.56 27.8348 75 27.8348 76.95C27.8348 78.81 28.9748 79.5 32.3948 80.64L34.1948 81.24C38.1848 82.56 39.9248 84.15 39.9248 87.33C39.9248 91.11 36.6548 93.45 32.3048 93.45C28.0148 93.45 25.4048 91.26 24.0848 87.75ZM64.3373 76.95L61.8473 77.88C61.0973 75.09 59.3273 73.68 56.6573 73.68C52.4573 73.68 49.8173 76.71 49.8173 82.05C49.8173 87.63 52.5173 91.08 56.6573 91.08C59.2673 91.08 61.5173 89.82 62.2373 86.67L64.7573 87.57C63.4073 91.56 60.3173 93.42 56.4173 93.42C50.6573 93.42 47.1173 89.16 47.1173 82.29C47.1173 75.21 51.0773 71.4 56.6573 71.4C60.4373 71.4 63.3173 73.29 64.3373 76.95ZM86.5497 93H71.9697V71.82H85.8597V74.16H74.5797V80.94H84.8697V83.25H74.5797V90.66H86.5497V93ZM110.699 93H107.789C103.979 87.09 99.8686 80.85 96.3886 75.3C96.4486 76.74 96.4786 82.77 96.4786 93H94.0186V71.82H96.9886C100.709 77.61 105.149 84.39 108.299 89.58C108.239 85.44 108.209 79.02 108.209 71.82H110.699V93ZM127.11 93H124.5V74.16H118.2V71.82H133.44V74.16H127.11V93ZM154.513 93H151.933V71.82H165.763V74.16H154.513V80.76H164.653V83.1H154.513V93ZM176.033 93H173.483V71.82H176.033V93ZM201.724 93H198.814C195.004 87.09 190.894 80.85 187.414 75.3C187.474 76.74 187.504 82.77 187.504 93H185.044V71.82H188.014C191.734 77.61 196.174 84.39 199.324 89.58C199.264 85.44 199.234 79.02 199.234 71.82H201.724V93ZM210.726 93V71.82H216.666C220.296 71.82 221.826 72.03 223.296 72.75C225.966 74.07 227.646 77.7 227.646 82.17C227.646 85.62 226.686 88.56 224.886 90.42C224.076 91.29 223.056 91.95 221.946 92.31C220.446 92.82 218.976 93 216.366 93H210.726ZM213.276 90.72H216.456C220.026 90.72 221.736 90.3 223.026 88.71C224.286 87.15 224.946 84.96 224.946 82.23C224.946 78.78 223.926 74.94 220.236 74.28C219.336 74.1 218.676 74.07 216.936 74.07H213.276V90.72ZM250.343 93H235.763V71.82H249.653V74.16H238.373V80.94H248.663V83.25H238.373V90.66H250.343V93ZM273.952 93H270.922L264.922 84.03H260.332V93H257.812V71.82H264.322C266.542 71.82 268.402 71.82 269.992 72.45C271.972 73.23 273.262 75.27 273.262 77.79C273.262 81.03 271.252 83.19 267.502 83.7L273.952 93ZM260.332 81.78H265.012C268.762 81.78 270.592 80.58 270.592 77.76C270.592 76.53 270.112 75.51 269.302 74.88C268.462 74.19 267.292 74.07 264.952 74.07H260.332V81.78Z" fill="#4B4B4B"/>
<path d="M0 0V6.48373H14.1571V41.9937H21.4384V6.48373H35.6017V0H0ZM93.6837 17.1499H74.4478V0H67.0916V42H74.4478V23.6712H93.6837V42H101.04V0H93.6837V17.1499ZM296.15 35.579H279.123V23.5709H295.558V17.1499H279.123V6.37086H296.107L299.819 0H271.842V42H300L296.157 35.579H296.15ZM215.488 35.579V23.5709H231.929V17.1499H215.488V6.37086H232.478L236.165 0H208.188V42H236.371L232.522 35.579H215.494H215.488ZM163.67 22.6617C169.479 20.8307 172.143 17.4697 172.143 11.8388C172.143 4.97253 166.316 0 158.28 0H139.699V42H147.055V23.8531H156.227C156.657 24.6306 166.335 42 166.335 42H174.302C174.302 42 164.513 24.2231 163.67 22.6617ZM157.206 17.476H147.055V6.31442H156.751C161.967 6.31442 164.494 8.12033 164.494 11.8388C164.494 15.5572 162.054 17.476 157.206 17.476Z" fill="black"/>
</svg>
