<svg fill="none" height="35" viewBox="0 0 250 35" width="250" xmlns="http://www.w3.org/2000/svg"><path d="m0 0v5.40311h11.7976v29.59169h6.0677v-29.59169h11.8028v-5.40311zm78.0697 14.2916h-16.0299v-14.2916h-6.1301v35h6.1301v-15.274h16.0299v15.274h6.1302v-35h-6.1302zm168.7223 15.3575h-14.189v-10.0067h13.695v-5.3508h-13.695v-8.98255h14.153l3.093-5.30905h-23.314v35h23.465l-3.203-5.3509zm-67.219 0v-10.0067h13.701v-5.3508h-13.701v-8.98255h14.159l3.072-5.30905h-23.314v35h23.486l-3.208-5.3509h-14.189zm-43.181-10.7644c4.841-1.5258 7.061-4.3266 7.061-9.01907 0-5.72186-4.856-9.86563-11.553-9.86563h-15.484v35h6.13v-15.1224h7.643c.359.6479 8.423 15.1224 8.423 15.1224h6.64s-8.158-14.8141-8.86-16.1153zm-5.387-4.3214h-8.459v-9.30128h8.08c4.347 0 6.452 1.50492 6.452 4.60361 0 3.09867-2.033 4.69767-6.073 4.69767z" fill="#251e1c"/></svg>